{"accessors":[{"bufferView":2,"componentType":5126,"count":8,"max":[1.9047070741653442,0.008434057235717773,3.120239019393921],"min":[1.1051969528198242,0.008434057235717773,1.4080469608306885],"type":"VEC3","byteOffset":0},{"bufferView":2,"byteOffset":96,"componentType":5126,"count":8,"max":[0,-1,0],"min":[0,-1,0],"type":"VEC3"},{"bufferView":3,"componentType":5126,"count":8,"max":[-1,0,0,1],"min":[-1,0,-0.000004295402959542116,1],"type":"VEC4","byteOffset":0},{"bufferView":1,"componentType":5126,"count":8,"max":[0.985152006149292,0.9798420071601868],"min":[0.7571560144424438,0.45902198553085327],"type":"VEC2","byteOffset":0},{"bufferView":0,"componentType":5125,"count":18,"max":[7],"min":[0],"type":"SCALAR","byteOffset":0},{"bufferView":2,"byteOffset":192,"componentType":5126,"count":255,"max":[2,1.878551959991455,3.9971210956573486],"min":[0,0,0],"type":"VEC3"},{"bufferView":2,"byteOffset":3252,"componentType":5126,"count":255,"max":[1,1,1],"min":[-1,-1,-1],"type":"VEC3"},{"bufferView":3,"byteOffset":128,"componentType":5126,"count":255,"max":[1,1,1,1],"min":[-1,-1,-1,1],"type":"VEC4"},{"bufferView":1,"byteOffset":64,"componentType":5126,"count":255,"max":[0.9515299797058105,0.9843559861183167],"min":[0.012059000320732594,0.004687000066041946],"type":"VEC2"},{"bufferView":0,"byteOffset":72,"componentType":5125,"count":549,"max":[254],"min":[0],"type":"SCALAR"},{"bufferView":2,"byteOffset":6312,"componentType":5126,"count":194,"max":[1.6635891199111938,0.2736790180206299,3.720947027206421],"min":[0.2457740306854248,0,0.370730996131897],"type":"VEC3"},{"bufferView":2,"byteOffset":8640,"componentType":5126,"count":194,"max":[1,1,1],"min":[-1,-1,-1],"type":"VEC3"},{"bufferView":3,"byteOffset":4208,"componentType":5126,"count":194,"max":[1,1,1,1],"min":[-1,-1,-1,1],"type":"VEC4"},{"bufferView":1,"byteOffset":2104,"componentType":5126,"count":194,"max":[0.9793300032615662,0.8833310008049011],"min":[0.012651000171899796,0.002311999909579754],"type":"VEC2"},{"bufferView":0,"byteOffset":2268,"componentType":5125,"count":438,"max":[193],"min":[0],"type":"SCALAR"}],"asset":{"extras":{"author":"mohamed.amir94812 (https://sketchfab.com/mohamed.amir94812)","license":"CC-BY-4.0 (http://creativecommons.org/licenses/by/4.0/)","source":"https://sketchfab.com/models/d2d06c12322948c980877bf81fe42745","title":"Smart fridge"},"generator":"Sketchfab-3.19.3","version":"2.0"},"bufferViews":[{"buffer":0,"byteLength":4020,"byteOffset":0,"name":"floatBufferViews","target":34963},{"buffer":0,"byteLength":3656,"byteOffset":4020,"byteStride":8,"name":"floatBufferViews","target":34962},{"buffer":0,"byteLength":10968,"byteOffset":7676,"byteStride":12,"name":"floatBufferViews","target":34962},{"buffer":0,"byteLength":7312,"byteOffset":18644,"byteStride":16,"name":"floatBufferViews","target":34962},{"buffer":0,"byteOffset":25956,"byteLength":496},{"buffer":0,"byteOffset":26452,"byteLength":459},{"buffer":0,"byteOffset":26912,"byteLength":459},{"buffer":0,"byteOffset":27372,"byteLength":1258416},{"buffer":0,"byteOffset":1285788,"byteLength":496}],"buffers":[{"byteLength":1286284,"uri":"data:application/octet-stream;base64,"}],"images":[{"bufferView":4,"mimeType":"image/png"},{"bufferView":5,"mimeType":"image/png"},{"bufferView":6,"mimeType":"image/png"},{"bufferView":7,"mimeType":"image/png"},{"bufferView":8,"mimeType":"image/png"}],"materials":[{"doubleSided":true,"emissiveFactor":[0,0,0],"name":"fridge_grey","pbrMetallicRoughness":{"baseColorFactor":[1,1,0,1],"metallicFactor":0,"metallicRoughnessTexture":{"index":2,"texCoord":0},"roughnessFactor":0.1602515244},"alphaMode":"OPAQUE"},{"doubleSided":true,"emissiveFactor":[0,0,0],"name":"fridge_grey.001","pbrMetallicRoughness":{"baseColorFactor":[1,1,1,1],"baseColorTexture":{"index":0,"texCoord":0},"metallicFactor":0,"metallicRoughnessTexture":{"index":1,"texCoord":0},"roughnessFactor":1},"alphaMode":"OPAQUE"},{"doubleSided":true,"emissiveFactor":[0.9317835366,0.9317835366,0.9317835366],"emissiveTexture":{"index":4,"texCoord":0},"name":"screen","pbrMetallicRoughness":{"baseColorFactor":[1,1,1,1],"baseColorTexture":{"index":3,"texCoord":0},"metallicFactor":0,"roughnessFactor":0},"alphaMode":"OPAQUE"}],"meshes":[{"primitives":[{"attributes":{"NORMAL":1,"POSITION":0,"TANGENT":2,"TEXCOORD_0":3},"indices":4,"material":2,"mode":4}]},{"primitives":[{"attributes":{"NORMAL":6,"POSITION":5,"TANGENT":7,"TEXCOORD_0":8},"indices":9,"material":0,"mode":4}]},{"primitives":[{"attributes":{"NORMAL":11,"POSITION":10,"TANGENT":12,"TEXCOORD_0":13},"indices":14,"material":1,"mode":4}]}],"nodes":[{"children":[1],"name":"RootNode (gltf orientation matrix)","rotation":[-0.7071067811865475,0,0,0.7071067811865476],"translation":[0,0,0],"scale":[1,1,1]},{"children":[2],"name":"RootNode (model correction matrix)"},{"children":[3],"matrix":[1,0,0,0,0,1,0,0,0,0,1,0,-3.5150420665740967,-1.0771290063858032,0,1],"name":"e2ef571ae46042cf943145c812f5e714.obj.cleaner.materialmerger.gles"},{"children":[4,5,6],"name":""},{"mesh":0,"name":""},{"mesh":1,"name":""},{"mesh":2,"name":""}],"samplers":[{"magFilter":9729,"minFilter":9987,"wrapS":10497,"wrapT":10497}],"scene":0,"scenes":[{"name":"OSG_Scene","nodes":[0]}],"textures":[{"sampler":0,"source":0},{"sampler":0,"source":1},{"sampler":0,"source":2},{"sampler":0,"source":3},{"sampler":0,"source":4}]}
